<svg width="13" height="10" viewBox="0 0 13 10" fill="none" xmlns="http://www.w3.org/2000/svg">
<path d="M3.10605 0.757227C3.16182 0.812937 3.20606 0.879093 3.23625 0.951914C3.26644 1.02473 3.28198 1.10279 3.28198 1.18162C3.28198 1.26045 3.26644 1.33851 3.23625 1.41133C3.20606 1.48415 3.16182 1.5503 3.10605 1.60601C2.20594 2.50628 1.70027 3.72721 1.70027 5.00027C1.70027 6.27332 2.20594 7.49425 3.10605 8.39452C3.16174 8.45025 3.20591 8.51641 3.23604 8.58921C3.26616 8.66201 3.28165 8.74003 3.28163 8.81882C3.2816 8.89761 3.26605 8.97563 3.23588 9.04841C3.2057 9.12119 3.16148 9.18731 3.10575 9.24301C3.05002 9.2987 2.98386 9.34287 2.91106 9.37299C2.83826 9.40312 2.76023 9.41861 2.68144 9.41858C2.60265 9.41856 2.52464 9.40301 2.45186 9.37283C2.37908 9.34266 2.31295 9.29844 2.25726 9.24271C-0.0857536 6.89969 -0.0857536 3.10024 2.25726 0.757227C2.31297 0.701455 2.37913 0.65721 2.45195 0.627023C2.52477 0.596836 2.60282 0.581299 2.68165 0.581299C2.76048 0.581299 2.83854 0.596836 2.91136 0.627023C2.98418 0.65721 3.05034 0.701455 3.10605 0.757227ZM10.7427 0.757227C13.0858 3.10084 13.0858 6.89969 10.7427 9.24271C10.6296 9.35197 10.4781 9.41243 10.3208 9.41107C10.1635 9.4097 10.0131 9.34662 9.90186 9.2354C9.79064 9.12418 9.72756 8.97373 9.72619 8.81645C9.72482 8.65917 9.78528 8.50765 9.89455 8.39452C10.7947 7.49425 11.3003 6.27332 11.3003 5.00027C11.3003 3.72721 10.7947 2.50628 9.89455 1.60601C9.782 1.49354 9.71873 1.34096 9.71867 1.18183C9.71862 1.02271 9.78178 0.870083 9.89425 0.757527C10.0067 0.64497 10.1593 0.581705 10.3184 0.581649C10.4776 0.581593 10.6302 0.64475 10.7427 0.757227ZM4.8858 2.4812C4.99826 2.59368 5.06143 2.74623 5.06143 2.90529C5.06143 3.06435 4.99826 3.2169 4.8858 3.32938C4.66743 3.54774 4.4942 3.80696 4.37602 4.09227C4.25784 4.37757 4.19701 4.68336 4.19701 4.99217C4.19701 5.30098 4.25784 5.60677 4.37602 5.89207C4.4942 6.17737 4.66743 6.4366 4.8858 6.65495C4.9431 6.71029 4.98879 6.77648 5.02023 6.84966C5.05167 6.92285 5.06822 7.00156 5.06891 7.0812C5.0696 7.16085 5.05442 7.23984 5.02426 7.31356C4.9941 7.38728 4.94956 7.45425 4.89324 7.51058C4.83692 7.5669 4.76994 7.61144 4.69622 7.6416C4.6225 7.67176 4.54352 7.68694 4.46387 7.68624C4.38422 7.68555 4.30551 7.66901 4.23232 7.63757C4.15914 7.60613 4.09295 7.56043 4.03762 7.50314C3.37168 6.83718 2.99756 5.93396 2.99756 4.99217C2.99756 4.05038 3.37168 3.14716 4.03762 2.4812C4.1501 2.36874 4.30265 2.30557 4.46171 2.30557C4.62077 2.30557 4.77332 2.36874 4.8858 2.4812ZM9.06016 2.4812C9.7261 3.14716 10.1002 4.05038 10.1002 4.99217C10.1002 5.93396 9.7261 6.83718 9.06016 7.50314C9.00447 7.55887 8.93834 7.60309 8.86556 7.63327C8.79278 7.66344 8.71477 7.67899 8.63598 7.67902C8.55719 7.67905 8.47917 7.66355 8.40636 7.63343C8.33356 7.6033 8.2674 7.55913 8.21167 7.50344C8.15594 7.44775 8.11172 7.38162 8.08155 7.30884C8.05137 7.23606 8.03582 7.15805 8.03579 7.07926C8.03577 7.00047 8.05126 6.92245 8.08138 6.84964C8.11151 6.77684 8.15568 6.71069 8.21137 6.65495C8.42975 6.4366 8.60297 6.17737 8.72116 5.89207C8.83934 5.60677 8.90017 5.30098 8.90017 4.99217C8.90017 4.68336 8.83934 4.37757 8.72116 4.09227C8.60297 3.80696 8.42975 3.54774 8.21137 3.32938C8.0989 3.21683 8.03574 3.0642 8.03579 2.90508C8.03585 2.74596 8.09912 2.59337 8.21167 2.4809C8.32423 2.36842 8.47686 2.30526 8.63598 2.30532C8.7951 2.30537 8.94768 2.36864 9.06016 2.4812ZM6.54859 4.14278C6.66675 4.14278 6.78375 4.16605 6.89292 4.21127C7.00208 4.25649 7.10127 4.32277 7.18483 4.40632C7.26838 4.48987 7.33465 4.58906 7.37987 4.69823C7.42509 4.80739 7.44836 4.9244 7.44836 5.04256C7.44836 5.16072 7.42509 5.27772 7.37987 5.38688C7.33465 5.49605 7.26838 5.59524 7.18483 5.67879C7.10127 5.76234 7.00208 5.82862 6.89292 5.87384C6.78375 5.91906 6.66675 5.94233 6.54859 5.94233C6.30995 5.94233 6.08109 5.84753 5.91235 5.67879C5.74361 5.51005 5.64881 5.28119 5.64881 5.04256C5.64881 4.80392 5.74361 4.57506 5.91235 4.40632C6.08109 4.23758 6.30995 4.14278 6.54859 4.14278Z" fill="#EB5757"/>
</svg>
